<svg width="834" height="144" viewBox="0 0 834 144" fill="none" xmlns="http://www.w3.org/2000/svg">
<path d="M1.10768 142.715C0.539384 142.147 0.255249 141.082 0.255249 139.52C0.255249 137.533 0.539384 136.539 1.10768 136.539C2.38635 136.539 4.08959 136.397 6.21906 136.114C8.34852 135.688 10.3359 135.12 12.1812 134.409C14.0266 133.701 15.0921 132.991 15.3763 132.28C15.9446 130.293 16.2981 127.737 16.4402 124.615C16.7243 121.492 16.8664 117.73 16.8664 113.33V30.7083C16.8664 26.3076 16.7243 22.5462 16.4402 19.4225C16.2981 16.1567 15.9446 13.6029 15.3763 11.756C15.0921 10.9053 14.0266 10.195 12.1812 9.62673C10.3359 8.91807 8.34852 8.34982 6.21906 7.92363C4.08959 7.49744 2.38635 7.28434 1.10768 7.28434C0.539384 7.28434 0.255249 6.36258 0.255249 4.5174C0.255249 2.81265 0.539384 1.6778 1.10768 1.10954C2.38635 1.10954 4.51583 1.2516 7.49609 1.53573C10.6201 1.67779 13.9555 1.89089 17.5057 2.17501C21.0543 2.31708 24.1072 2.38812 26.6629 2.38812C31.206 2.38812 35.7491 2.24605 40.2922 1.96192C44.8353 1.53573 48.5259 1.25161 51.3658 1.10954C51.6499 1.6778 51.7209 2.88369 51.5789 4.72886C51.5789 6.43362 51.3658 7.28434 50.9395 7.28434C50.0871 7.28434 48.597 7.56846 46.4675 8.13672C44.338 8.56291 42.3506 9.13116 40.5053 9.83982C38.66 10.4081 37.5944 11.0474 37.3103 11.756C36.0333 16.5829 35.3939 23.1839 35.3939 31.5607V63.2886L35.8201 63.9263C42.7768 64.0683 48.9521 64.2104 54.3477 64.3525C59.7415 64.3525 64.3557 64.3525 68.19 64.3525C72.3069 64.3525 76.9921 64.3525 82.2439 64.3525C87.4973 64.2104 93.3174 64.0683 99.7075 63.9263C99.9916 63.6438 100.132 63.3597 100.132 63.0756V30.7083C100.132 26.3076 99.9916 22.5462 99.7075 19.4225C99.5654 16.1567 99.2102 13.6029 98.6419 11.756C98.3578 10.9053 97.2938 10.195 95.4485 9.62673C93.6016 8.91807 91.6142 8.34982 89.4847 7.92363C87.3553 7.49744 85.652 7.28434 84.3733 7.28434C83.8067 7.28434 83.5225 6.36258 83.5225 4.5174C83.5225 2.81265 83.8067 1.6778 84.3733 1.10954C85.5099 1.10954 87.6394 1.2516 90.7634 1.53573C93.8857 1.67779 97.2228 1.89089 100.771 2.17501C104.464 2.31708 107.586 2.38812 110.142 2.38812C114.685 2.38812 119.157 2.24605 123.558 1.96192C127.959 1.53573 131.58 1.25161 134.418 1.10954C134.702 2.24605 134.845 3.30987 134.845 4.30431C134.845 6.29155 134.56 7.28434 133.994 7.28434C133.141 7.28434 131.651 7.56846 129.522 8.13672C127.391 8.56291 125.403 9.13116 123.558 9.83982C121.713 10.4081 120.647 11.0474 120.364 11.756C119.796 14.0274 119.37 16.796 119.086 20.0618C118.802 23.3259 118.66 27.16 118.66 31.5607V112.477C118.66 116.878 118.802 120.71 119.086 123.976C119.37 127.242 119.796 130.009 120.364 132.28C120.647 132.848 121.713 133.488 123.558 134.196C125.403 134.907 127.391 135.475 129.522 135.901C131.651 136.327 133.141 136.539 133.994 136.539C134.56 136.539 134.845 137.604 134.845 139.734C134.845 140.586 134.702 141.579 134.418 142.715C127.32 142.431 121.713 142.218 117.596 142.076C113.621 141.792 111.136 141.65 110.142 141.65L84.3733 142.715C83.8067 142.147 83.5225 140.939 83.5225 139.094C83.5225 137.391 83.8067 136.539 84.3733 136.539C85.652 136.539 87.3553 136.397 89.4847 136.114C91.6142 135.688 93.6016 135.12 95.4485 134.409C97.2938 133.701 98.3578 132.991 98.6419 132.28C99.2102 130.293 99.5654 127.737 99.7075 124.615C99.9916 121.492 100.132 117.73 100.132 113.33V75.8514L99.7075 75.0006C93.0349 74.8586 87.0711 74.7875 81.8193 74.7875C76.5658 74.6455 72.0227 74.5744 68.19 74.5744C46.3254 74.5744 35.3939 74.9296 35.3939 75.6383V112.477C35.3939 120.71 36.0333 127.311 37.3103 132.28C37.5944 132.848 38.66 133.488 40.5053 134.196C42.3506 134.907 44.338 135.475 46.4675 135.901C48.597 136.327 50.0871 136.539 50.9395 136.539C51.3658 136.539 51.5789 137.391 51.5789 139.094C51.7209 140.799 51.6499 142.005 51.3658 142.715C44.267 142.431 38.66 142.218 34.5415 142.076C30.4246 141.792 27.7979 141.65 26.6629 141.65L1.10768 142.715ZM147.834 142.715C147.268 142.147 146.984 141.082 146.984 139.52C146.984 137.533 147.268 136.539 147.834 136.539C149.539 136.539 151.74 136.185 154.438 135.475C157.134 134.765 158.981 133.772 159.974 132.493C161.535 130.506 163.098 127.88 164.659 124.615C166.362 121.35 168.138 117.304 169.983 112.477L207.037 17.2932C207.889 15.1639 208.386 13.6739 208.528 12.8215C208.813 11.9691 209.026 11.2605 209.166 10.6922C209.45 9.98188 209.947 8.84704 210.658 7.28434C211.651 5.29711 212.645 3.73606 213.638 2.59956C214.633 1.4647 216.265 0.896453 218.536 0.896453L220.454 1.53573L263.045 113.967C264.322 117.233 265.459 120.144 266.452 122.699C267.589 125.253 268.51 127.453 269.221 129.3C269.789 130.719 270.995 131.996 272.84 133.133C274.829 134.127 276.817 134.978 278.804 135.688C280.934 136.256 282.566 136.539 283.702 136.539C284.269 136.539 284.553 137.888 284.553 140.586C284.553 140.87 284.482 141.224 284.34 141.65C284.34 141.934 284.269 142.289 284.127 142.715C277.03 142.431 271.492 142.218 267.517 142.076C263.683 141.792 261.412 141.65 260.703 141.65L236 142.715C235.432 142.147 235.148 141.01 235.148 139.307C235.29 137.462 235.645 136.539 236.213 136.539C237.916 136.539 240.046 136.185 242.602 135.475C245.157 134.765 246.647 133.843 247.074 132.706C247.216 132.138 247.287 131.572 247.287 131.003C247.429 130.435 247.5 129.867 247.5 129.3C247.5 127.453 247.287 125.324 246.86 122.911C246.434 120.357 245.937 118.368 245.37 116.949L235.787 90.545C235.361 89.9767 234.934 89.6926 234.508 89.6926C228.972 89.2664 223.577 89.0533 218.323 89.0533C214.633 89.0533 210.516 89.1954 205.973 89.4795C201.572 89.6216 196.673 89.8347 191.278 90.1188L190.214 90.7581L181.057 114.18C179.636 117.73 178.643 120.71 178.075 123.124C177.649 125.537 177.436 127.453 177.436 128.874C177.436 130.861 178.004 132.28 179.14 133.133C180.417 134.127 182.476 134.978 185.316 135.688C188.156 136.256 190.214 136.539 191.491 136.539C191.917 136.539 192.13 137.391 192.13 139.094C192.272 140.799 192.201 142.005 191.917 142.715L169.983 141.65C166.007 141.366 162.103 141.437 158.27 141.863C154.578 142.147 151.101 142.431 147.834 142.715ZM210.871 78.833C217.259 78.833 223.719 78.6199 230.249 78.1937L230.889 77.1299L213.638 30.069L195.325 77.5544C195.325 78.1227 195.466 78.4068 195.75 78.4068C199.442 78.5489 202.494 78.691 204.907 78.833C207.463 78.833 209.45 78.833 210.871 78.833ZM298.182 142.715C297.616 142.147 297.332 141.082 297.332 139.52C297.332 137.533 297.616 136.539 298.182 136.539C299.461 136.539 301.164 136.397 303.294 136.114C305.423 135.688 307.411 135.12 309.256 134.409C311.103 133.701 312.167 132.991 312.451 132.28C313.446 128.732 313.941 122.344 313.941 113.117V31.1344C313.941 27.0179 313.799 23.397 313.517 20.2749C313.375 17.1511 313.019 14.6667 312.451 12.8215C312.167 11.9691 311.032 11.1894 309.043 10.4791C307.198 9.76879 305.139 9.20054 302.868 8.776C300.738 8.34981 299.035 8.13672 297.756 8.13672C297.19 8.13672 296.905 7.28434 296.905 5.58124C296.905 3.73606 297.19 2.52852 297.756 1.96192C301.448 2.10399 305.352 2.24605 309.469 2.38812C313.728 2.38812 318.271 2.38812 323.098 2.38812C326.364 2.38812 330.765 2.31708 336.301 2.17501C341.839 2.03295 348.512 1.81985 356.321 1.53573C364.27 1.2516 371.156 1.03852 376.978 0.896453C382.94 0.75439 387.909 0.68335 391.884 0.68335C392.168 2.67058 392.594 5.08401 393.161 7.92363C393.729 10.6212 394.44 13.6029 395.292 16.867C396.001 20.2749 396.569 23.0418 396.995 25.1711C397.564 27.3021 397.917 28.7921 398.059 29.6444C397.351 30.3531 396.072 30.7083 394.227 30.7083C392.381 30.7083 391.387 30.211 391.245 29.2182C389.115 21.4097 386.135 16.4408 382.301 14.3115C378.468 12.0402 373.214 10.9053 366.542 10.9053H352.273C339.923 10.9053 333.676 11.8271 333.534 13.6739C333.25 15.377 332.966 17.7194 332.682 20.6994C332.54 23.6811 332.469 27.3021 332.469 31.5607V66.2687C332.469 67.121 335.451 67.5472 341.413 67.5472H352.699C359.088 67.5472 363.702 67.3342 366.542 66.908C369.382 66.3397 371.369 65.1338 372.506 63.2886C373.641 61.3014 374.706 58.1777 375.699 53.9191L376.125 52.0029C376.267 51.0085 377.331 50.5112 379.32 50.5112C381.024 50.5112 382.23 50.8664 382.94 51.5767V92.8874C382.372 93.454 381.237 93.7381 379.532 93.7381C377.686 93.7381 376.552 93.1715 376.125 92.035C375.557 90.0478 375.06 88.3447 374.635 86.924C374.209 85.5051 373.854 84.2975 373.57 83.3047C372.859 81.3175 372.293 80.181 371.866 79.8968C371.582 79.6144 371.014 79.1882 370.163 78.6199C368.174 77.4834 360.651 76.9168 347.59 76.9168C337.509 76.9168 332.469 77.5544 332.469 78.833V112.477C332.469 120.71 333.108 127.311 334.385 132.28C334.669 132.848 335.735 133.488 337.58 134.196C339.425 134.907 341.413 135.475 343.542 135.901C345.672 136.327 347.163 136.539 348.014 136.539C348.583 136.539 348.867 137.604 348.867 139.734C348.867 140.586 348.725 141.579 348.44 142.715C341.342 142.431 335.735 142.218 331.618 142.076C327.499 141.792 324.874 141.65 323.738 141.65L298.182 142.715ZM410.838 142.715C410.269 142.147 409.985 141.082 409.985 139.52C409.985 137.533 410.269 136.539 410.838 136.539C412.541 136.539 414.742 136.185 417.439 135.475C420.137 134.765 421.982 133.772 422.975 132.493C424.538 130.506 426.099 127.88 427.66 124.615C429.365 121.35 431.14 117.304 432.985 112.477L470.04 17.2932C470.891 15.1639 471.388 13.6739 471.53 12.8215C471.814 11.9691 472.027 11.2605 472.169 10.6922C472.453 9.98188 472.949 8.84704 473.659 7.28434C474.654 5.29711 475.647 3.73606 476.641 2.59956C477.634 1.4647 479.268 0.896453 481.54 0.896453L483.456 1.53573L526.047 113.967C527.324 117.233 528.461 120.144 529.453 122.699C530.59 125.253 531.514 127.453 532.222 129.3C532.791 130.719 533.997 131.996 535.844 133.133C537.831 134.127 539.818 134.978 541.806 135.688C543.935 136.256 545.567 136.539 546.704 136.539C547.272 136.539 547.556 137.888 547.556 140.586C547.556 140.87 547.485 141.224 547.343 141.65C547.343 141.934 547.272 142.289 547.13 142.715C540.031 142.431 534.494 142.218 530.519 142.076C526.686 141.792 524.415 141.65 523.704 141.65L499.002 142.715C498.433 142.147 498.149 141.01 498.149 139.307C498.291 137.462 498.647 136.539 499.215 136.539C500.918 136.539 503.048 136.185 505.603 135.475C508.159 134.765 509.649 133.843 510.075 132.706C510.217 132.138 510.288 131.572 510.288 131.003C510.43 130.435 510.501 129.867 510.501 129.3C510.501 127.453 510.288 125.324 509.862 122.911C509.436 120.357 508.939 118.368 508.372 116.949L498.789 90.545C498.362 89.9767 497.936 89.6926 497.512 89.6926C491.974 89.2664 486.578 89.0533 481.327 89.0533C477.634 89.0533 473.517 89.1954 468.974 89.4795C464.573 89.6216 459.675 89.8347 454.281 90.1188L453.216 90.7581L444.058 114.18C442.639 117.73 441.645 120.71 441.077 123.124C440.652 125.537 440.439 127.453 440.439 128.874C440.439 130.861 441.005 132.28 442.142 133.133C443.419 134.127 445.478 134.978 448.317 135.688C451.157 136.256 453.216 136.539 454.493 136.539C454.919 136.539 455.132 137.391 455.132 139.094C455.274 140.799 455.203 142.005 454.919 142.715L432.985 141.65C429.01 141.366 425.105 141.437 421.272 141.863C417.581 142.147 414.102 142.431 410.838 142.715ZM473.873 78.833C480.261 78.833 486.72 78.6199 493.251 78.1937L493.89 77.1299L476.641 30.069L458.327 77.5544C458.327 78.1227 458.469 78.4068 458.753 78.4068C462.444 78.5489 465.497 78.691 467.91 78.833C470.464 78.833 472.454 78.833 473.873 78.833ZM687.682 143.141C667.947 143.141 650.698 132.919 635.934 112.477C634.797 110.916 633.307 108.787 631.461 106.089C629.757 103.392 626.563 98.636 621.878 91.8219C619.607 88.5578 617.548 85.8602 615.703 83.7309C613.998 81.4595 611.939 79.7548 609.526 78.6199C607.254 77.4834 604.132 76.9168 600.155 76.9168C598.594 76.9168 597.317 77.1299 596.323 77.5544C595.47 77.9806 595.046 78.9751 595.046 80.5361V111.838C595.046 121.208 595.612 127.382 596.749 130.364C597.317 131.501 598.665 132.564 600.795 133.559C603.066 134.552 605.48 135.333 608.036 135.901C610.591 136.327 612.437 136.539 613.572 136.539C614.14 136.539 614.424 137.533 614.424 139.52C614.424 140.515 614.282 141.579 613.998 142.715C606.899 142.431 601.008 142.147 596.323 141.863C591.78 141.579 588.444 141.508 586.313 141.65L560.333 142.715C559.907 142.289 559.694 141.01 559.694 138.881C559.694 137.036 559.907 136.114 560.333 136.114C561.752 136.114 563.456 135.901 565.445 135.475C567.574 135.049 569.562 134.552 571.407 133.985C573.394 133.275 574.602 132.493 575.026 131.643C576.021 130.08 576.518 123.408 576.518 111.625V31.1344C576.518 27.0179 576.376 23.397 576.092 20.2749C575.95 17.1511 575.595 14.6667 575.026 12.8215C574.744 11.9691 573.607 11.1894 571.62 10.4791C569.775 9.76879 567.716 9.20054 565.445 8.776C563.315 8.34981 561.61 8.13672 560.333 8.13672C559.765 8.13672 559.481 7.28434 559.481 5.58124C559.481 3.73606 559.765 2.52852 560.333 1.96192L585.889 2.38812C590.005 2.52853 595.046 2.45749 601.008 2.17501C606.97 1.74882 611.939 1.53573 615.914 1.53573C623.581 1.53573 630.893 3.02574 637.85 6.00742C644.949 8.98909 650.698 13.3898 655.099 19.2094C659.642 25.0307 661.913 32.1272 661.913 40.504C661.913 46.4657 659.642 52.7115 655.099 59.2415C650.698 65.7731 644.665 70.8114 636.997 74.3613C635.578 74.9296 635.152 75.6383 635.72 76.4906C642.677 91.2536 650.84 103.747 660.21 113.967C673.839 128.874 684.913 136.327 693.431 136.327C693.857 137.178 694.07 138.173 694.07 139.307C694.07 140.586 693.857 141.65 693.431 142.502C692.012 142.928 690.095 143.141 687.682 143.141ZM613.572 67.7603H618.896C622.304 67.7603 625.782 66.6239 629.332 64.3525C633.023 62.0811 636.076 58.888 638.488 54.7698C641.043 50.6533 642.322 45.8975 642.322 40.504C642.322 20.7704 632.383 10.9053 612.508 10.9053C605.977 10.9053 601.008 11.4025 597.6 12.3953C596.323 12.6794 595.541 15.0218 595.257 19.4225C595.117 23.6811 595.046 29.1472 595.046 35.8192V61.5839C595.046 65.7021 601.221 67.7603 613.572 67.7603ZM697.052 142.715C696.484 142.147 696.2 141.082 696.2 139.52C696.2 137.533 696.484 136.539 697.052 136.539C698.755 136.539 700.956 136.185 703.654 135.475C706.351 134.765 708.197 133.772 709.189 132.493C710.752 130.506 712.313 127.88 713.875 124.615C715.58 121.35 717.354 117.304 719.199 112.477L756.254 17.2932C757.105 15.1639 757.602 13.6739 757.744 12.8215C758.029 11.9691 758.242 11.2605 758.384 10.6922C758.668 9.98188 759.163 8.84704 759.874 7.28434C760.868 5.29711 761.861 3.73606 762.856 2.59956C763.849 1.4647 765.482 0.896453 767.754 0.896453L769.67 1.53573L812.261 113.967C813.538 117.233 814.675 120.144 815.668 122.699C816.804 125.253 817.728 127.453 818.437 129.3C819.005 130.719 820.211 131.996 822.058 133.133C824.045 134.127 826.033 134.978 828.02 135.688C830.149 136.256 831.782 136.539 832.918 136.539C833.487 136.539 833.771 137.888 833.771 140.586C833.771 140.87 833.7 141.224 833.558 141.65C833.558 141.934 833.487 142.289 833.345 142.715C826.246 142.431 820.708 142.218 816.733 142.076C812.901 141.792 810.629 141.65 809.919 141.65L785.216 142.715C784.648 142.147 784.364 141.01 784.364 139.307C784.506 137.462 784.861 136.539 785.429 136.539C787.132 136.539 789.262 136.185 791.818 135.475C794.373 134.765 795.863 133.843 796.29 132.706C796.432 132.138 796.503 131.572 796.503 131.003C796.645 130.435 796.716 129.867 796.716 129.3C796.716 127.453 796.503 125.324 796.076 122.911C795.65 120.357 795.153 118.368 794.586 116.949L785.003 90.545C784.577 89.9767 784.15 89.6926 783.726 89.6926C778.188 89.2664 772.793 89.0533 767.541 89.0533C763.849 89.0533 759.732 89.1954 755.189 89.4795C750.788 89.6216 745.889 89.8347 740.495 90.1188L739.43 90.7581L730.273 114.18C728.854 117.73 727.859 120.71 727.291 123.124C726.866 125.537 726.653 127.453 726.653 128.874C726.653 130.861 727.22 132.28 728.356 133.133C729.633 134.127 731.692 134.978 734.532 135.688C737.372 136.256 739.43 136.539 740.707 136.539C741.133 136.539 741.346 137.391 741.346 139.094C741.488 140.799 741.417 142.005 741.133 142.715L719.199 141.65C715.224 141.366 711.319 141.437 707.486 141.863C703.796 142.147 700.316 142.431 697.052 142.715ZM760.087 78.833C766.475 78.833 772.935 78.6199 779.465 78.1937L780.105 77.1299L762.856 30.069L744.541 77.5544C744.541 78.1227 744.683 78.4068 744.968 78.4068C748.658 78.5489 751.711 78.691 754.125 78.833C756.679 78.833 758.668 78.833 760.087 78.833Z" fill="white"/>
</svg>
